# AST/ASF file generated using VICON BodyLanguage
# -----------------------------------------------
:version 1.10
:name VICON
:units
  mass 1.0
  length 0.45
  angle deg
:documentation
   .ast/.asf automatically generated from VICON data using
   VICON BodyBuilder and BodyLanguage model FoxedUp or BRILLIANT.MOD
:root
   order TX TY TZ RX RY RZ
   axis XYZ
   position 0 0 0  
   orientation 0 0 0 
:bonedata
  begin
     id 1 
     name lhipjoint
     direction 0.567725 -0.736092 0.368589 
     length 2.42353 
     axis 0 0 0  XYZ
  end
  begin
     id 2 
     name lfemur
     direction 0.34202 -0.939693 0  
     length 7.24894  
     axis 0 0 20  XYZ
    dof rx ry rz
    limits (-160.0 20.0)
           (-70.0 70.0)
           (-60.0 70.0)
  end
  begin
     id 3 
     name ltibia
     direction 0.34202 -0.939693 0   
     length 7.6997   
     axis 0 0 20   XYZ
    dof rx
    limits (-10.0 170.0)
  end
  begin
     id 4 
     name lfoot
     direction 0.100767 -0.276854 0.955614   
     length 2.37556   
     axis -90 7.62852e-016 20   XYZ
    dof rx rz
    limits (-45.0 90.0)
           (-70.0 20.0)
  end
  begin
     id 5 
     name ltoes
     direction 1.53592e-011 -4.21894e-011 1   
     length 1.18363   
     axis -90 7.62852e-016 20   XYZ
    dof rx
    limits (-90.0 20.0)
  end
  begin
     id 6 
     name rhipjoint
     direction -0.556459 -0.742938 0.372017   
     length 2.4012  
     axis 0 0 0  XYZ 
  end
  begin
     id 7 
     name rfemur
     direction -0.34202 -0.939693 0   
     length 7.5119   
     axis 0 0 -20   XYZ
    dof rx ry rz
    limits (-160.0 20.0)
           (-70.0 70.0)
           (-70.0 60.0)
  end
  begin
     id 8 
     name rtibia
     direction -0.34202 -0.939693 0   
     length 7.50155   
     axis 0 0 -20   XYZ
    dof rx
    limits (-10.0 170.0)
 end
 begin
     id 9 
     name rfoot
     direction -0.118427 -0.325376 0.938139   
     length 2.32487  
     axis -90 -7.62852e-016 -20   XYZ
    dof rx rz
    limits (-45.0 90.0)
           (-20.0 70.0)
  end
  begin
     id 10 
     name rtoes
     direction -1.53525e-011 -4.21868e-011 1   
     length 1.15233   
     axis -90 -7.62852e-016 -20   XYZ
    dof rx
    limits (-90.0 20.0)
  end
  begin
     id 11 
     name lowerback
     direction 0.0287568 0.999577 -0.00434502   
     length 2.15243   
     axis 0 0 0   XYZ
    dof rx ry rz
    limits (-20.0 45.0)
           (-30.0 30.0)
           (-30.0 30.0)
  end
  begin
     id 12 
     name upperback
     direction 0.0294009 0.99956 0.00404628   
     length 2.15427   
     axis 0 0 0   XYZ
    dof rx ry rz
    limits (-20.0 45.0)
           (-30.0 30.0)
           (-30.0 30.0)
  end
  begin
     id 13 
     name thorax
     direction 0.0151014 0.999868 0.0059419   
     length 2.14898   
     axis 0 0 0   XYZ
    dof rx ry rz
    limits (-20.0 45.0)
           (-30.0 30.0)
           (-30.0 30.0)
  end
  begin
     id 14 
     name lowerneck
     direction -0.0249197 0.989906 0.139515   
     length 1.6861   
     axis 0 0 0   XYZ
    dof rx ry rz
    limits (-20.0 45.0)
           (-30.0 30.0)
           (-30.0 30.0)
  end
  begin
     id 15 
     name upperneck
     direction 0.0438463 0.988795 -0.142693   
     length 1.71276   
     axis 0 0 0   XYZ
    dof rx ry rz
    limits (-20.0 45.0)
           (-30.0 30.0)
           (-30.0 30.0)
  end
  begin
     id 16
     name head
     direction 0.0148499 0.997845 -0.0639186  
     length 1.7209  
     axis 0 0 0   XYZ
    dof rx ry rz
    limits (-20.0 45.0)
           (-30.0 30.0)
           (-30.0 30.0)
  end
  begin
     id 17 
     name lclavicle
     direction 0.940298 0.323464 -0.105876  
     length 3.9048  
     axis 0 0 0   XYZ
    dof ry rz
    limits (-20.0 10.0)
           (0.0 20.0)
  end
  begin
     id 18 
     name lhumerus
     direction 1 -4.48954e-011 -4.9675e-028   
     length 4.6851   
     axis 180 -30 -90   XYZ
    dof rx ry rz
    limits (-60.0 90.0)
           (-90.0 90.0)
           (-90.0 90.0)
  end
  begin
     id 19
     name lradius
     direction 1 -4.48992e-011 -1.03359e-026   
     length 3.39626   
     axis 180 -30 -90   XYZ
    dof rx
    limits (-10.0 170.0)
  end
  begin
     id 20
     name lwrist
     direction 1 -4.48906e-011 -1.67336e-026   
     length 1.69813   
     axis 9.90442e-015 90 90   XYZ
    dof ry
    limits (-180.0 0.0)
 end
  begin
     id 21 
     name lhand
     direction 1 -4.49006e-011 -3.34673e-026   
     length 0.486078   
     axis 2.1355e-014 90 90   XYZ
    dof rx rz
    limits (-90.0 90.0)
           (-45.0 45.0)
  end
  begin
     id 22 
     name lfingers
     direction 1 -4.48992e-011 -6.69345e-026   
     length 0.391889   
     axis 4.27099e-014 90 90   XYZ
    dof rx
    limits (0.0 90.0)
  end
  begin
     id 23
     name lthumb
     direction 0.707107 -6.34926e-011 0.707107   
     length 0.562676   
     axis -90 45 2.85299e-015   XYZ
    dof rx rz
    limits (-45.0 45.0)
           (-45.0 45.0)
  end
  begin
     id 24 
     name rclavicle
     direction -0.882459 0.414895 -0.221648   
     length 3.44646  
     axis 0 0 0   XYZ 
    dof ry rz
    limits (-10.0 20.0)
           (-20.0 0.0)
  end
  begin
     id 25 
     name rhumerus
     direction -1 -4.48962e-011 -2.37984e-027  
     length 5.55576   
     axis 180 30 90   XYZ
    dof rx ry rz
    limits (-90.0 60.0)
           (-90.0 90.0)
           (-90.0 90.0)
  end
  begin
     id 26 
     name rradius
     direction -1 -4.48982e-011 -6.86791e-027   
     length 3.32774   
     axis 180 30 90   XYZ
    dof rx
    limits (-10.0 170.0)
  end
  begin
     id 27 
     name rwrist
     direction -1 -4.48961e-011 -1.67336e-026   
     length 1.66387   
     axis 9.90442e-015 -90 -90   XYZ
    dof ry
    limits (-180.0 0.0)
  end
  begin
     id 28
     name rhand
     direction -1 -4.4897e-011 -3.34673e-026   
     length 0.507628   
     axis 2.1355e-014 -90 -90   XYZ
    dof rx rz
    limits (-90.0 90.0)
           (-45.0 45.0)
  end
  begin
     id 29
     name rfingers
     direction -1 -4.48854e-011 -6.69345e-026   
     length 0.409263   
     axis 4.27099e-014 -90 -90   XYZ
    dof rx
    limits (0.0 90.0)
  end
  begin
     id 30
     name rthumb
     direction -0.707107 -6.34913e-011 0.707107   
     length 0.587622   
     axis -90 -45 -2.85299e-015   XYZ
    dof rx rz
    limits (-45.0 45.0)
           (-45.0 45.0)
  end
:hierarchy
  begin
    root lhipjoint rhipjoint lowerback
    lhipjoint lfemur
    lfemur ltibia
    ltibia lfoot
    lfoot ltoes
    rhipjoint rfemur
    rfemur rtibia
    rtibia rfoot
    rfoot rtoes
    lowerback upperback
    upperback thorax
    thorax lowerneck lclavicle rclavicle
    lowerneck upperneck
    upperneck head
    lclavicle lhumerus
    lhumerus lradius
    lradius lwrist
    lwrist lhand lthumb
    lhand lfingers
    rclavicle rhumerus
    rhumerus rradius
    rradius rwrist
    rwrist rhand rthumb
    rhand rfingers
  end

#!OML:ASF E:\motion texture\Top Level 1\Subject 1\Session 1\male.ASF
:FULLY-SPECIFIED
:DEGREES
65
root 22.4256 17.6302 3.97562 100.4 -81.6275 -91.739
lowerback -2.30223 1.22575 6.66576
upperback -1.75467 1.41255 3.73357
thorax -0.447795 0.617005 0.139671
lowerneck -11.6962 -5.99325 -9.02359
upperneck 13.9656 -7.54008 5.93654
head 6.75245 -3.66975 2.65067
rclavicle -1.60519e-014 -2.38542e-014
rhumerus -21.929 18.3687 -72.7772
rradius 51.4176
rwrist -14.2489
rhand -3.10962 -28.4888
rfingers 7.12502
rthumb 22.6088 -57.1848
lclavicle -1.60519e-014 -2.38542e-014
lhumerus -35.2264 13.5745 78.6859
lradius 32.4282
lwrist -17.7643
lhand -9.10122 16.7393
lfingers 7.12502
lthumb 16.849 46.0284
rfemur -0.469801 3.90575 32.6074
rtibia 15.0628
rfoot -16.4046 -11.4107
rtoes 6.32227
lfemur -31.3084 -1.86502 -4.07909
ltibia 11.9244
lfoot -4.30361 7.04266
ltoes -18.3181
66
root 22.3082 17.617 3.99206 101.215 -81.5652 -92.637
lowerback -2.26346 1.23815 6.6739
upperback -1.76168 1.43385 3.71042
thorax -0.475048 0.626952 0.110922
lowerneck -11.7289 -6.01957 -9.03368
upperneck 14.1865 -7.61176 6.08529
head 6.84079 -3.69451 2.69078
rclavicle -1.98288e-014 -1.90833e-014
rhumerus -21.2457 19.8622 -71.8215
rradius 53.999
rwrist -15.5636
rhand -2.83987 -28.9193
rfingers 7.12502
rthumb 22.8676 -57.5834
lclavicle -1.98288e-014 -1.90833e-014
lhumerus -34.985 13.3211 79.0003
lradius 32.6551
lwrist -18.0099
lhand -8.6966 16.7664
lfingers 7.12502
lthumb 17.2385 46.0218
rfemur -0.11408 3.95497 32.6146
rtibia 15.3883
rfoot -16.6426 -11.4101
rtoes 5.46741
lfemur -31.4849 -1.73579 -4.27318
ltibia 13.0044
lfoot -4.12704 6.90422
ltoes -18.0263
67
root 22.1872 17.6046 4.01003 102.419 -81.5053 -93.9445
lowerback -2.23386 1.26685 6.67867
upperback -1.76662 1.47608 3.67898
thorax -0.493872 0.647656 0.0761365
lowerneck -11.7398 -6.04612 -9.01763
upperneck 14.4365 -7.69228 6.22356
head 6.93419 -3.72363 2.72285
rclavicle -7.70291e-016 -2.78299e-015
rhumerus -20.4864 21.2456 -70.733
rradius 56.6261
rwrist -16.8313
rhand -2.54685 -29.3229
rfingers 7.12502
rthumb 23.1488 -57.952
lclavicle -7.70291e-016 -2.78299e-015
lhumerus -34.76 13.0355 79.2978
lradius 32.8616
lwrist -18.285
lhand -8.29221 16.843
lfingers 7.12502
lthumb 17.6277 46.0639
rfemur 0.249753 4.03539 32.6053
rtibia 15.7655
rfoot -16.8625 -11.4077
rtoes 4.53025
lfemur -31.5373 -1.67945 -4.4541
ltibia 14.023
lfoot -4.04801 6.77206
ltoes -17.6565
68
root 22.0624 17.5934 4.03022 104.03 -81.4475 -95.6709
lowerback -2.21747 1.31165 6.68636
upperback -1.77542 1.53882 3.63483
thorax -0.507819 0.678647 0.0273176
lowerneck -11.7271 -6.07015 -8.97147
upperneck 14.7161 -7.77866 6.34892
head 7.03202 -3.75569 2.7458
rclavicle -1.76421e-014 -2.94201e-014
rhumerus -19.6467 22.5241 -69.5147
rradius 59.293
rwrist -18.0566
rhand -2.2108 -29.6512
rfingers 7.12502
rthumb 23.4712 -58.2395
lclavicle -1.76421e-014 -2.94201e-014
lhumerus -34.5539 12.7437 79.5639
lradius 33.0354
lwrist -18.6085
lhand -7.94902 16.9067
lfingers 7.12502
lthumb 17.9579 46.0977
rfemur 0.610425 4.13634 32.566
rtibia 16.1899
rfoot -17.0498 -11.3799
rtoes 3.50773
lfemur -31.4682 -1.69087 -4.62323
ltibia 14.9353
lfoot -3.96656 6.59738
ltoes -17.1182
69
root 21.9338 17.5838 4.05169 105.935 -81.4014 -97.691
lowerback -2.22665 1.36634 6.67619
upperback -1.79034 1.6132 3.5786
thorax -0.513167 0.715794 -0.0233211
lowerneck -11.6797 -6.09045 -8.91604
upperneck 15.0121 -7.86907 6.48011
head 7.12955 -3.78959 2.76961
rclavicle 1.2598e-014 4.77083e-015
rhumerus -18.7127 23.6961 -68.1726
rradius 61.9634
rwrist -19.186
rhand -1.88229 -29.822
rfingers 7.12502
rthumb 23.7863 -58.3696
lclavicle 1.2598e-014 4.77083e-015
lhumerus -34.3672 12.4536 79.802
lradius 33.1761
lwrist -18.9707
lhand -7.70368 16.8876
lfingers 7.12502
lthumb 18.1939 46.0567
rfemur 0.963786 4.27744 32.4942
rtibia 16.6585
rfoot -17.2097 -11.3468
rtoes 2.42171
lfemur -31.298 -1.74643 -4.79864
ltibia 15.7119
lfoot -3.72138 6.35485
ltoes -16.5135
70
root 21.8012 17.5765 4.07508 108.252 -81.375 -100.123
lowerback -2.25405 1.43078 6.63942
upperback -1.81953 1.70066 3.50262
thorax -0.522374 0.759516 -0.0789997
lowerneck -11.5968 -6.10144 -8.83179
upperneck 15.3408 -7.95685 6.59411
head 7.22954 -3.82312 2.78434
rclavicle -1.12065e-014 -7.55382e-015
rhumerus -17.6784 24.7664 -66.7214
rradius 64.6307
rwrist -20.2597
rhand -1.52661 -29.9717
rfingers 7.12502
rthumb 24.1274 -58.4745
lclavicle -1.12065e-014 -7.55382e-015
lhumerus -34.2243 12.1796 79.9936
lradius 33.2881
lwrist -19.354
lhand -7.55733 16.7659
lfingers 7.12502
lthumb 18.3347 45.9218
rfemur 1.29499 4.45799 32.3586
rtibia 17.1838
rfoot -17.3247 -11.283
rtoes 1.24301
lfemur -31.0268 -1.84357 -4.99493
ltibia 16.3236
lfoot -3.25704 6.1097
ltoes -15.546
71
root 21.6663 17.5718 4.09976 110.731 -81.3907 -102.696
lowerback -2.31373 1.48817 6.556
upperback -1.85677 1.77767 3.40571
thorax -0.522827 0.798808 -0.12991
lowerneck -11.5122 -6.09898 -8.7655
upperneck 15.7003 -8.03258 6.7369
head 7.34044 -3.84969 2.8128
rclavicle -1.73191e-014 -2.62396e-014
rhumerus -16.5039 25.735 -65.1585
rradius 67.2765
rwrist -21.2895
rhand -1.19768 -30.1185
rfingers 7.12502
rthumb 24.4427 -58.5791
lclavicle -1.73191e-014 -2.62396e-014
lhumerus -34.1089 11.9275 80.147
lradius 33.3781
lwrist -19.7224
lhand -7.51543 16.5812
lfingers 7.12502
lthumb 18.375 45.7333
rfemur 1.57441 4.66738 32.1447
rtibia 17.7736
rfoot -17.3954 -11.2066
rtoes -0.000946878
lfemur -30.7209 -1.96879 -5.25131
ltibia 16.7979
lfoot -2.53432 5.86164
ltoes -14.3515
72
root 21.5296 17.5702 4.12526 113.303 -81.4578 -105.347
lowerback -2.39241 1.53073 6.4138
upperback -1.90744 1.83593 3.28752
thorax -0.528381 0.829246 -0.170188
lowerneck -11.4202 -6.08552 -8.68063
upperneck 16.092 -8.10011 6.86823
head 7.45887 -3.87252 2.83574
rclavicle 2.65874e-015 -1.19271e-015
rhumerus -15.1999 26.5904 -63.4999
rradius 69.9006
rwrist -22.2912
rhand -0.911345 -30.2815
rfingers 7.12502
rthumb 24.7172 -58.7048
lclavicle 2.65874e-015 -1.19271e-015
lhumerus -34.0298 11.7105 80.2551
lradius 33.4448
lwrist -20.0705
lhand -7.54853 16.3606
lfingers 7.12502
lthumb 18.3432 45.5157
rfemur 1.7894 4.88558 31.8423
rtibia 18.4456
rfoot -17.4137 -11.1136
rtoes -1.32376
lfemur -30.399 -2.09764 -5.59083
ltibia 17.1606
lfoot -1.64214 5.63104
ltoes -12.8798
73
root 21.3919 17.5721 4.15136 115.843 -81.5788 -107.954
lowerback -2.48442 1.54887 6.21818
upperback -1.96595 1.86275 3.15224
thorax -0.537136 0.844573 -0.19887
lowerneck -11.3322 -6.06145 -8.58137
upperneck 16.5087 -8.15663 6.98357
head 7.58432 -3.89049 2.85239
rclavicle 2.43635e-014 2.50469e-014
rhumerus -13.7638 27.3235 -61.75
rradius 72.5152
rwrist -23.3123
rhand -0.670013 -30.5073
rfingers 7.12502
rthumb 24.9485 -58.8987
lclavicle 2.43635e-014 2.50469e-014
lhumerus -33.9811 11.5343 80.3201
lradius 33.4885
lwrist -20.3719
lhand -7.62994 16.1894
lfingers 7.12502
lthumb 18.2649 45.3518
rfemur 1.92485 5.07217 31.4501
rtibia 19.2224
rfoot -17.3774 -10.9863
rtoes -2.7188
lfemur -30.0853 -2.22558 -6.02205
ltibia 17.4632
lfoot -0.690368 5.43669
ltoes -11.2122
74
root 21.2533 17.5775 4.17814 118.322 -81.7321 -110.5
lowerback -2.58613 1.54462 5.99811
upperback -2.01577 1.85951 3.00709
thorax -0.533327 0.845753 -0.224369
lowerneck -11.2628 -6.02906 -8.47215
upperneck 16.9354 -8.20252 7.08739
head 7.71495 -3.90306 2.86458
rclavicle 7.82715e-016 1.39149e-015
rhumerus -12.1857 27.9166 -59.9066
rradius 75.1284
rwrist -24.3761
rhand -0.499192 -30.7388
rfingers 7.12502
rthumb 25.1121 -59.1074
lclavicle 7.82715e-016 1.39149e-015
lhumerus -33.9279 11.4178 80.3478
lradius 33.4888
lwrist -20.6325
lhand -7.75489 16.0641
lfingers 7.12502
lthumb 18.1447 45.2378
rfemur 1.98562 5.20925 30.9912
rtibia 20.1142
rfoot -17.2801 -10.8059
rtoes -4.15569
lfemur -29.7656 -2.33636 -6.52356
ltibia 17.7408
lfoot 0.200863 5.28231
ltoes -9.3811
75
root 21.1137 17.5859 4.20539 120.621 -81.8932 -112.875
lowerback -2.67442 1.51808 5.78361
upperback -2.06646 1.82784 2.86382
thorax -0.539137 0.832383 -0.252
lowerneck -11.1967 -5.98789 -8.36106
upperneck 17.3708 -8.23651 7.17792
head 7.84785 -3.91073 2.87357
rclavicle 1.68967e-015 5.84427e-014
rhumerus -10.5033 28.3666 -57.9872
rradius 77.7394
rwrist -25.4635
rhand -0.406541 -30.9273
rfingers 7.12502
rthumb 25.2009 -59.2834
lclavicle 1.68967e-015 5.84427e-014
lhumerus -33.8942 11.3419 80.3428
lradius 33.4517
lwrist -20.833
lhand -7.8903 15.9908
lfingers 7.12502
lthumb 18.0144 45.1766
rfemur 1.97443 5.275 30.4994
rtibia 21.1305
rfoot -17.1174 -10.5594
rtoes -5.61347
lfemur -29.4306 -2.42525 -7.05944
ltibia 18.0286
lfoot 0.935803 5.12278
ltoes -7.46882
76
root 20.9729 17.5968 4.23349 122.642 -82.035 -114.993
lowerback -2.74849 1.47462 5.6175
upperback -2.10723 1.77306 2.72846
thorax -0.54258 0.807007 -0.29909
lowerneck -11.1338 -5.94289 -8.24725
upperneck 17.8018 -8.26388 7.25356
head 7.97907 -3.91604 2.87808
rclavicle -1.01877e-015 -4.13472e-014
rhumerus -8.72383 28.6629 -55.9961
rradius 80.3527
rwrist -26.5589
rhand -0.391906 -31.0416
rfingers 7.12502
rthumb 25.2149 -59.3958
lclavicle -1.01877e-015 -4.13472e-014
lhumerus -33.8652 11.3014 80.3097
lradius 33.3718
lwrist -20.9784
lhand -8.05142 15.9947
lfingers 7.12502
lthumb 17.8594 45.1946
rfemur 1.90151 5.25582 30.0047
rtibia 22.2718
rfoot -16.8769 -10.2288
rtoes -7.05686
lfemur -29.0574 -2.49219 -7.58751
ltibia 18.3428
lfoot 1.45957 4.9147
ltoes -5.52682
77
root 20.8315 17.6096 4.26188 124.331 -82.1342 -116.8
lowerback -2.80013 1.41836 5.51613
upperback -2.13589 1.70042 2.61339
thorax -0.545774 0.771962 -0.362112
lowerneck -11.0745 -5.89497 -8.13897
upperneck 18.2239 -8.28367 7.31538
head 8.10753 -3.91894 2.87987
rclavicle 7.70912e-015 -2.3059e-014
rhumerus -6.85036 28.7961 -53.9372
rradius 82.9568
rwrist -27.6385
rhand -0.473493 -30.9908
rfingers 7.12502
rthumb 25.1368 -59.3559
lclavicle 7.70912e-015 -2.3059e-014
lhumerus -33.8229 11.3062 80.2569
lradius 33.2357
lwrist -21.0847
lhand -8.2372 16.0571
lfingers 7.12502
lthumb 17.6806 45.2732
rfemur 1.75765 5.16435 29.5431
rtibia 23.5549
rfoot -16.5487 -9.8138
rtoes -8.42603
lfemur -28.6431 -2.51206 -8.06838
ltibia 18.6972
lfoot 1.76331 4.64896
ltoes -3.6203
78
root 20.6893 17.6239 4.29073 125.787 -82.1759 -118.404
lowerback -2.8151 1.36416 5.483
upperback -2.16015 1.63097 2.51987
thorax -0.563776 0.737256 -0.441602
lowerneck -11.001 -5.85002 -8.03175
upperneck 18.6423 -8.30511 7.35474
head 8.23196 -3.92498 2.87465
rclavicle -1.83068e-014 -2.26615e-014
rhumerus -4.92282 28.762 -51.8282
rradius 85.5412
rwrist -28.6573
rhand -0.613159 -30.7767
rfingers 7.12502
rthumb 25.0029 -59.1605
lclavicle -1.83068e-014 -2.26615e-014
lhumerus -33.7812 11.3316 80.1925
lradius 33.0453
lwrist -21.1582
lhand -8.44087 16.129
lfingers 7.12502
lthumb 17.4846 45.3627
rfemur 1.55088 5.02021 29.1177
rtibia 24.9756
rfoot -16.1107 -9.31211
rtoes -9.69877
lfemur -28.1607 -2.50235 -8.47727
ltibia 19.0696
lfoot 1.8534 4.37564
ltoes -1.77477
